<svg xmlns="http://www.w3.org/2000/svg" viewBox="0 0 700 460">
  <defs>
    <linearGradient id="bg" x1="0" y1="0" x2="0" y2="1">
      <stop offset="0%" stop-color="#0d1117"/>
      <stop offset="100%" stop-color="#161b22"/>
    </linearGradient>
    <marker id="arrow" viewBox="0 0 10 10" refX="10" refY="5"
            markerWidth="6" markerHeight="6" orient="auto-start-reverse">
      <path d="M0,0 L10,5 L0,10 z" fill="#8b949e"/>
    </marker>
  </defs>

  <!-- Background -->
  <rect width="700" height="460" fill="url(#bg)"/>

  <!-- Top decoration -->
  <line x1="80" y1="18" x2="620" y2="18" stroke="#30363d" stroke-width="0.5"/>

  <!-- Stars -->
  <circle cx="674" cy="12" r="1" fill="#e3b341" opacity="0.7"/>
  <circle cx="270" cy="19" r="1.5" fill="#e3b341" opacity="0.7"/>
  <circle cx="578" cy="10" r="2.5" fill="#e3b341" opacity="0.3"/>
  <circle cx="115" cy="18" r="1.5" fill="#e3b341" opacity="0.6"/>
  <circle cx="47" cy="40" r="1.5" fill="#e3b341" opacity="0.7"/>
  <circle cx="578" cy="31" r="1.5" fill="#e3b341" opacity="0.6"/>
  <circle cx="304" cy="5" r="1.5" fill="#e3b341" opacity="0.7"/>
  <circle cx="368" cy="22" r="1.5" fill="#e3b341" opacity="0.4"/>
  <circle cx="364" cy="11" r="1" fill="#e3b341" opacity="0.5"/>
  <circle cx="387" cy="27" r="2" fill="#e3b341" opacity="0.8"/>
  <circle cx="490" cy="39" r="1" fill="#e3b341" opacity="0.9"/>
  <circle cx="407" cy="10" r="2" fill="#e3b341" opacity="0.8"/>
  <circle cx="653" cy="28" r="1.5" fill="#e3b341" opacity="0.7"/>
  <circle cx="66" cy="47" r="1.5" fill="#e3b341" opacity="0.8"/>
  <circle cx="101" cy="19" r="1" fill="#e3b341" opacity="0.5"/>
  <circle cx="484" cy="45" r="2" fill="#e3b341" opacity="0.4"/>
  <circle cx="383" cy="18" r="2" fill="#e3b341" opacity="0.7"/>
  <circle cx="93" cy="43" r="1.5" fill="#e3b341" opacity="0.6"/>

  <!-- VIBE -->
  <text x="350" y="85" text-anchor="middle"
        font-family="'Segoe UI', 'Helvetica Neue', Helvetica, Arial, sans-serif" font-size="76" font-weight="900"
        fill="#3fb950" letter-spacing="0.25em">VIBE</text>

  <!-- SCIENCE -->
  <text x="350" y="145" text-anchor="middle"
        font-family="'Segoe UI', 'Helvetica Neue', Helvetica, Arial, sans-serif" font-size="58" font-weight="900"
        fill="#58a6ff" letter-spacing="0.18em">SCIENCE</text>

  <!-- Version badge -->
  <text x="350" y="175" text-anchor="middle"
        font-family="Consolas, Monaco, 'Courier New', monospace" font-size="16" fill="#f0883e"
        font-weight="bold">v3.5 — TERTIUM DATUR</text>

  <!-- Separator -->
  <line x1="180" y1="188" x2="520" y2="188"
        stroke="#30363d" stroke-width="0.5"/>

  <!-- Architecture -->
  <g transform="translate(0,205)">
    <rect x="140" y="0" width="95" height="32" rx="6" fill="#1a2332" stroke="#3fb950" stroke-width="1.5"/>
    <text x="187" y="20" text-anchor="middle" font-family="Consolas, Monaco, 'Courier New', monospace" font-size="11" fill="#3fb950" font-weight="bold">OBSERVE</text>
    <line x1="235" y1="16" x2="260" y2="16" stroke="#8b949e" stroke-width="1.5" marker-end="url(#arrow)"/>
    <rect x="260" y="0" width="95" height="32" rx="6" fill="#1a2332" stroke="#3fb950" stroke-width="1.5"/>
    <text x="307" y="20" text-anchor="middle" font-family="Consolas, Monaco, 'Courier New', monospace" font-size="11" fill="#3fb950" font-weight="bold">THINK</text>
    <line x1="355" y1="16" x2="380" y2="16" stroke="#8b949e" stroke-width="1.5" marker-end="url(#arrow)"/>
    <rect x="380" y="0" width="95" height="32" rx="6" fill="#1a2332" stroke="#58a6ff" stroke-width="1.5"/>
    <text x="427" y="20" text-anchor="middle" font-family="Consolas, Monaco, 'Courier New', monospace" font-size="11" fill="#58a6ff" font-weight="bold">ACT</text>
    <line x1="427" y1="32" x2="427" y2="47" stroke="#8b949e" stroke-width="1.5" marker-end="url(#arrow)"/>
    <rect x="380" y="47" width="95" height="32" rx="6" fill="#1a2332" stroke="#58a6ff" stroke-width="1.5"/>
    <text x="427" y="67" text-anchor="middle" font-family="Consolas, Monaco, 'Courier New', monospace" font-size="11" fill="#58a6ff" font-weight="bold">EVALUATE</text>
    <line x1="380" y1="63" x2="355" y2="63" stroke="#8b949e" stroke-width="1.5" marker-end="url(#arrow)"/>
    <rect x="260" y="47" width="95" height="32" rx="6" fill="#1a2332" stroke="#f85149" stroke-width="1.5"/>
    <text x="307" y="67" text-anchor="middle" font-family="Consolas, Monaco, 'Courier New', monospace" font-size="11" fill="#f85149" font-weight="bold">R2 (4 spec)</text>
    <line x1="260" y1="63" x2="235" y2="63" stroke="#8b949e" stroke-width="1.5" marker-end="url(#arrow)"/>
    <rect x="140" y="47" width="95" height="32" rx="6" fill="#1a2332" stroke="#d2a8ff" stroke-width="1.5"/>
    <text x="187" y="67" text-anchor="middle" font-family="Consolas, Monaco, 'Courier New', monospace" font-size="11" fill="#d2a8ff" font-weight="bold">CHECKPOINT</text>
    <path d="M140,47 L110,47 L110,16 L140,16" fill="none" stroke="#8b949e" stroke-width="1.5" stroke-dasharray="4,3" marker-end="url(#arrow)"/>
    <line x1="187" y1="79" x2="187" y2="104" stroke="#8b949e" stroke-width="1.5" marker-end="url(#arrow)"/>
    <rect x="120" y="104" width="110" height="32" rx="6" fill="#1a2332" stroke="#8b949e" stroke-width="1.5"/>
    <text x="175" y="124" text-anchor="middle" font-family="Consolas, Monaco, 'Courier New', monospace" font-size="11" fill="#8b949e" font-weight="bold">STATE.md</text>
    <line x1="427" y1="79" x2="427" y2="104" stroke="#8b949e" stroke-width="1.5" marker-end="url(#arrow)"/>
    <rect x="360" y="104" width="130" height="32" rx="6" fill="#1a2332" stroke="#e3b341" stroke-width="1.5"/>
    <text x="425" y="124" text-anchor="middle" font-family="Consolas, Monaco, 'Courier New', monospace" font-size="11" fill="#e3b341" font-weight="bold">CLAIM-LEDGER</text>
    <rect x="520" y="47" width="110" height="32" rx="6" fill="#1a2332" stroke="#e3b341" stroke-width="1.5"/>
    <text x="575" y="67" text-anchor="middle" font-family="Consolas, Monaco, 'Courier New', monospace" font-size="11" fill="#e3b341" font-weight="bold">SERENDIPITY</text>
    <line x1="475" y1="63" x2="520" y2="63" stroke="#e3b341" stroke-width="1.5" stroke-dasharray="5,3" marker-end="url(#arrow)"/>
    <text x="350" y="158" text-anchor="middle" font-family="Consolas, Monaco, 'Courier New', monospace" font-size="11" fill="#8b949e">7 Laws  ·  12 Gates  ·  Confidence E·R·C·K·D  ·  Double-Pass R2</text>
  </g>

  <!-- Tagline -->
  <text x="350" y="440" text-anchor="middle"
        font-family="Consolas, Monaco, 'Courier New', monospace" font-size="13" fill="#8b949e"
        font-style="italic">Loop  ·  Tool  ·  Discovery</text>

  <!-- Bottom decoration -->
  <line x1="80" y1="452" x2="620" y2="452"
        stroke="#30363d" stroke-width="0.5"/>
</svg>