<svg xmlns="http://www.w3.org/2000/svg" viewBox="0 0 700 502" style="background:#0d1117">
  <defs>
    <path id="LV" d="M0,0h9v9h-9z M48,0h9v9h-9z M0,12h9v9h-9z M48,12h9v9h-9z M12,24h9v9h-9z M36,24h9v9h-9z M12,36h9v9h-9z M36,36h9v9h-9z M24,48h9v9h-9z"/>
    <path id="LI" d="M0,0h9v9h-9z M12,0h9v9h-9z M24,0h9v9h-9z M12,12h9v9h-9z M12,24h9v9h-9z M12,36h9v9h-9z M0,48h9v9h-9z M12,48h9v9h-9z M24,48h9v9h-9z"/>
    <path id="LB" d="M0,0h9v9h-9z M12,0h9v9h-9z M24,0h9v9h-9z M0,12h9v9h-9z M36,12h9v9h-9z M0,24h9v9h-9z M12,24h9v9h-9z M24,24h9v9h-9z M0,36h9v9h-9z M36,36h9v9h-9z M0,48h9v9h-9z M12,48h9v9h-9z M24,48h9v9h-9z"/>
    <path id="LE" d="M0,0h9v9h-9z M12,0h9v9h-9z M24,0h9v9h-9z M36,0h9v9h-9z M0,12h9v9h-9z M0,24h9v9h-9z M12,24h9v9h-9z M24,24h9v9h-9z M0,36h9v9h-9z M0,48h9v9h-9z M12,48h9v9h-9z M24,48h9v9h-9z M36,48h9v9h-9z"/>
    <path id="LS" d="M12,0h9v9h-9z M24,0h9v9h-9z M36,0h9v9h-9z M0,12h9v9h-9z M12,24h9v9h-9z M24,24h9v9h-9z M36,36h9v9h-9z M0,48h9v9h-9z M12,48h9v9h-9z M24,48h9v9h-9z"/>
    <path id="LC" d="M12,0h9v9h-9z M24,0h9v9h-9z M36,0h9v9h-9z M0,12h9v9h-9z M0,24h9v9h-9z M0,36h9v9h-9z M12,48h9v9h-9z M24,48h9v9h-9z M36,48h9v9h-9z"/>
    <path id="LN" d="M0,0h9v9h-9z M48,0h9v9h-9z M0,12h9v9h-9z M12,12h9v9h-9z M48,12h9v9h-9z M0,24h9v9h-9z M24,24h9v9h-9z M48,24h9v9h-9z M0,36h9v9h-9z M36,36h9v9h-9z M48,36h9v9h-9z M0,48h9v9h-9z M48,48h9v9h-9z"/>
    <marker id="arrow" viewBox="0 0 10 10" refX="10" refY="5" markerWidth="6" markerHeight="6" orient="auto-start-reverse">
      <path d="M0,0 L10,5 L0,10 z" fill="#8b949e"/>
    </marker>
  </defs>

  <!-- Stars -->
  <circle cx="144" cy="9" r="2.5" fill="#e3b341" opacity="0.5"/>
  <circle cx="172" cy="14" r="1.5" fill="#e3b341" opacity="0.8"/>
  <circle cx="62" cy="9" r="1.5" fill="#e3b341" opacity="0.5"/>
  <circle cx="547" cy="46" r="1.5" fill="#e3b341" opacity="0.7"/>
  <circle cx="588" cy="34" r="2" fill="#e3b341" opacity="0.7"/>
  <circle cx="314" cy="8" r="2" fill="#e3b341" opacity="0.8"/>
  <circle cx="378" cy="25" r="2" fill="#e3b341" opacity="0.5"/>
  <circle cx="374" cy="14" r="1.5" fill="#e3b341" opacity="0.6"/>
  <circle cx="397" cy="30" r="2.5" fill="#e3b341" opacity="0.9"/>
  <circle cx="500" cy="42" r="1.5" fill="#e3b341" opacity="1.0"/>
  <circle cx="417" cy="13" r="2.5" fill="#e3b341" opacity="0.9"/>
  <circle cx="663" cy="31" r="2" fill="#e3b341" opacity="0.8"/>
  <circle cx="76" cy="50" r="2" fill="#e3b341" opacity="0.9"/>
  <circle cx="111" cy="22" r="1.5" fill="#e3b341" opacity="0.6"/>
  <circle cx="494" cy="48" r="2.5" fill="#e3b341" opacity="0.5"/>

  <!-- VIBE -->
  <use href="#LV" x="230" y="70" fill="#3fb950"/>
  <use href="#LI" x="307" y="70" fill="#3fb950"/>
  <use href="#LB" x="360" y="70" fill="#3fb950"/>
  <use href="#LE" x="425" y="70" fill="#3fb950"/>

  <!-- SCIENCE -->
  <use href="#LS" x="132" y="142" fill="#58a6ff"/>
  <use href="#LC" x="197" y="142" fill="#58a6ff"/>
  <use href="#LI" x="262" y="142" fill="#58a6ff"/>
  <use href="#LE" x="315" y="142" fill="#58a6ff"/>
  <use href="#LN" x="380" y="142" fill="#58a6ff"/>
  <use href="#LC" x="457" y="142" fill="#58a6ff"/>
  <use href="#LE" x="522" y="142" fill="#58a6ff"/>

  <!-- Version label -->
  <text x="350" y="227" text-anchor="middle" font-family="Consolas,Monaco,monospace" font-size="16" fill="#f0883e" font-weight="bold">v4.5 COLLIGITE FRAGMENTA</text>

  <!-- Architecture -->
  <g transform="translate(0,252)">
    <rect x="290" y="0" width="120" height="30" rx="6" fill="#1a2332" stroke="#e3b341" stroke-width="1.5"/>
    <text x="350" y="19" text-anchor="middle" font-family="Consolas,Monaco,monospace" font-size="11" fill="#e3b341" font-weight="bold">BRAINSTORM</text>
    <line x1="350" y1="30" x2="350" y2="50" stroke="#8b949e" stroke-width="1.5" marker-end="url(#arrow)"/>
    <rect x="80" y="50" width="100" height="26" rx="6" fill="#1a2332" stroke="#3fb950" stroke-width="1.5"/>
    <text x="130" y="67" text-anchor="middle" font-family="Consolas,Monaco,monospace" font-size="9" fill="#3fb950" font-weight="bold">S1 Discovery</text>
    <rect x="190" y="50" width="100" height="26" rx="6" fill="#1a2332" stroke="#58a6ff" stroke-width="1.5"/>
    <text x="240" y="67" text-anchor="middle" font-family="Consolas,Monaco,monospace" font-size="9" fill="#58a6ff" font-weight="bold">S2 Analysis</text>
    <rect x="300" y="50" width="100" height="26" rx="6" fill="#1a2332" stroke="#d2a8ff" stroke-width="1.5"/>
    <text x="350" y="67" text-anchor="middle" font-family="Consolas,Monaco,monospace" font-size="9" fill="#d2a8ff" font-weight="bold">S3 Validate</text>
    <rect x="410" y="50" width="100" height="26" rx="6" fill="#1a2332" stroke="#f0883e" stroke-width="1.5"/>
    <text x="460" y="67" text-anchor="middle" font-family="Consolas,Monaco,monospace" font-size="9" fill="#f0883e" font-weight="bold">S4 Synthesis</text>
    <rect x="520" y="50" width="100" height="26" rx="6" fill="#1a2332" stroke="#f85149" stroke-width="1.5"/>
    <text x="570" y="67" text-anchor="middle" font-family="Consolas,Monaco,monospace" font-size="9" fill="#f85149" font-weight="bold">S5 Publish</text>
    <line x1="180" y1="76" x2="520" y2="76" stroke="#8b949e" stroke-width="1" stroke-dasharray="3,2"/>
    <line x1="350" y1="76" x2="350" y2="98" stroke="#8b949e" stroke-width="1.5" marker-end="url(#arrow)"/>
    <rect x="295" y="98" width="110" height="28" rx="6" fill="#1a2332" stroke="#3fb950" stroke-width="1.5"/>
    <text x="350" y="116" text-anchor="middle" font-family="Consolas,Monaco,monospace" font-size="11" fill="#3fb950" font-weight="bold">OTAE-TREE</text>
    <rect x="450" y="98" width="120" height="28" rx="6" fill="#1a2332" stroke="#f85149" stroke-width="1.5"/>
    <text x="510" y="116" text-anchor="middle" font-family="Consolas,Monaco,monospace" font-size="11" fill="#f85149" font-weight="bold">R2 (6 modes)</text>
    <line x1="405" y1="112" x2="450" y2="112" stroke="#8b949e" stroke-width="1.5" marker-end="url(#arrow)"/>
    <rect x="150" y="98" width="110" height="28" rx="6" fill="#1a2332" stroke="#e3b341" stroke-width="1.5"/>
    <text x="205" y="116" text-anchor="middle" font-family="Consolas,Monaco,monospace" font-size="11" fill="#e3b341" font-weight="bold">SERENDIPITY</text>
    <line x1="295" y1="112" x2="260" y2="112" stroke="#e3b341" stroke-width="1.5" stroke-dasharray="5,3" marker-end="url(#arrow)"/>
    <text x="350" y="160" text-anchor="middle" font-family="Consolas,Monaco,monospace" font-size="11" fill="#8b949e">9 Laws · Schema Validation · Auto-Experiment · Writeup Engine</text>
  </g>

  <!-- Tagline -->
  <text x="350" y="482" text-anchor="middle" font-family="Consolas,Monaco,monospace" font-size="13" fill="#c9d1d9">Brainstorm · Tree · Review · Publish</text>
</svg>