<svg xmlns="http://www.w3.org/2000/svg" viewBox="0 0 700 460">
  <defs>
    <linearGradient id="bg" x1="0" y1="0" x2="0" y2="1">
      <stop offset="0%" stop-color="#0d1117"/>
      <stop offset="100%" stop-color="#161b22"/>
    </linearGradient>
    <marker id="arrow" viewBox="0 0 10 10" refX="10" refY="5"
            markerWidth="6" markerHeight="6" orient="auto-start-reverse">
      <path d="M0,0 L10,5 L0,10 z" fill="#8b949e"/>
    </marker>
  </defs>

  <!-- Background -->
  <rect width="700" height="460" fill="url(#bg)"/>

  <!-- Top decoration -->
  <line x1="80" y1="18" x2="620" y2="18" stroke="#30363d" stroke-width="0.5"/>

  <!-- Stars -->
  <circle cx="674" cy="12" r="1" fill="#e3b341" opacity="0.7"/>
  <circle cx="270" cy="19" r="1.5" fill="#e3b341" opacity="0.7"/>
  <circle cx="578" cy="10" r="2.5" fill="#e3b341" opacity="0.3"/>
  <circle cx="115" cy="18" r="1.5" fill="#e3b341" opacity="0.6"/>
  <circle cx="47" cy="40" r="1.5" fill="#e3b341" opacity="0.7"/>
  <circle cx="578" cy="31" r="1.5" fill="#e3b341" opacity="0.6"/>
  <circle cx="304" cy="5" r="1.5" fill="#e3b341" opacity="0.7"/>
  <circle cx="368" cy="22" r="1.5" fill="#e3b341" opacity="0.4"/>
  <circle cx="364" cy="11" r="1" fill="#e3b341" opacity="0.5"/>
  <circle cx="387" cy="27" r="2" fill="#e3b341" opacity="0.8"/>
  <circle cx="490" cy="39" r="1" fill="#e3b341" opacity="0.9"/>
  <circle cx="407" cy="10" r="2" fill="#e3b341" opacity="0.8"/>
  <circle cx="653" cy="28" r="1.5" fill="#e3b341" opacity="0.7"/>
  <circle cx="66" cy="47" r="1.5" fill="#e3b341" opacity="0.8"/>
  <circle cx="101" cy="19" r="1" fill="#e3b341" opacity="0.5"/>
  <circle cx="484" cy="45" r="2" fill="#e3b341" opacity="0.4"/>
  <circle cx="383" cy="18" r="2" fill="#e3b341" opacity="0.7"/>
  <circle cx="93" cy="43" r="1.5" fill="#e3b341" opacity="0.6"/>

  <!-- VIBE -->
  <text x="350" y="85" text-anchor="middle"
        font-family="'Segoe UI', 'Helvetica Neue', Helvetica, Arial, sans-serif" font-size="76" font-weight="900"
        fill="#3fb950" letter-spacing="0.25em">VIBE</text>

  <!-- SCIENCE -->
  <text x="350" y="145" text-anchor="middle"
        font-family="'Segoe UI', 'Helvetica Neue', Helvetica, Arial, sans-serif" font-size="58" font-weight="900"
        fill="#58a6ff" letter-spacing="0.18em">SCIENCE</text>

  <!-- Version badge -->
  <text x="350" y="175" text-anchor="middle"
        font-family="Consolas, Monaco, 'Courier New', monospace" font-size="16" fill="#f0883e"
        font-weight="bold">v4.0 — ARBOR SCIENTIAE</text>

  <!-- Separator -->
  <line x1="180" y1="188" x2="520" y2="188"
        stroke="#30363d" stroke-width="0.5"/>

  <!-- Architecture -->
  <g transform="translate(0,205)">
    <rect x="295" y="0" width="110" height="30" rx="6" fill="#1a2332" stroke="#3fb950" stroke-width="1.5"/>
    <text x="350" y="19" text-anchor="middle" font-family="Consolas, Monaco, 'Courier New', monospace" font-size="11" fill="#3fb950" font-weight="bold">ROOT (RQ)</text>
    <line x1="325" y1="30" x2="325" y2="52" stroke="#8b949e" stroke-width="1.5" marker-end="url(#arrow)"/>
    <line x1="375" y1="30" x2="375" y2="52" stroke="#8b949e" stroke-width="1.5" marker-end="url(#arrow)"/>
    <rect x="220" y="52" width="110" height="28" rx="6" fill="#1a2332" stroke="#58a6ff" stroke-width="1.5"/>
    <text x="275" y="70" text-anchor="middle" font-family="Consolas, Monaco, 'Courier New', monospace" font-size="11" fill="#58a6ff" font-weight="bold">Branch A</text>
    <rect x="370" y="52" width="110" height="28" rx="6" fill="#1a2332" stroke="#58a6ff" stroke-width="1.5"/>
    <text x="425" y="70" text-anchor="middle" font-family="Consolas, Monaco, 'Courier New', monospace" font-size="11" fill="#58a6ff" font-weight="bold">Branch B</text>
    <line x1="275" y1="80" x2="275" y2="100" stroke="#8b949e" stroke-width="1.5" marker-end="url(#arrow)"/>
    <rect x="220" y="100" width="110" height="28" rx="6" fill="#1a2332" stroke="#d2a8ff" stroke-width="1.5"/>
    <text x="275" y="118" text-anchor="middle" font-family="Consolas, Monaco, 'Courier New', monospace" font-size="11" fill="#d2a8ff" font-weight="bold">A.1 (pruned)</text>
    <line x1="425" y1="80" x2="425" y2="100" stroke="#8b949e" stroke-width="1.5" marker-end="url(#arrow)"/>
    <rect x="370" y="100" width="110" height="28" rx="6" fill="#1a2332" stroke="#3fb950" stroke-width="1.5"/>
    <text x="425" y="118" text-anchor="middle" font-family="Consolas, Monaco, 'Courier New', monospace" font-size="11" fill="#3fb950" font-weight="bold">B.1 (best)</text>
    <line x1="480" y1="66" x2="540" y2="66" stroke="#e3b341" stroke-width="1.5" stroke-dasharray="5,3" marker-end="url(#arrow)"/>
    <rect x="540" y="52" width="125" height="28" rx="6" fill="#1a2332" stroke="#e3b341" stroke-width="1.5"/>
    <text x="602" y="70" text-anchor="middle" font-family="Consolas, Monaco, 'Courier New', monospace" font-size="11" fill="#e3b341" font-weight="bold">SERENDIPITY</text>
    <rect x="100" y="52" width="90" height="76" rx="6" fill="#1a2332" stroke="#f85149" stroke-width="1.5"/>
    <text x="145" y="94" text-anchor="middle" font-family="Consolas, Monaco, 'Courier New', monospace" font-size="14" fill="#f85149" font-weight="bold">R2</text>
    <text x="145" y="95" text-anchor="middle" font-family="Consolas, Monaco, 'Courier New', monospace" font-size="9" fill="#f85149">4 reviewers</text>
    <text x="145" y="108" text-anchor="middle" font-family="Consolas, Monaco, 'Courier New', monospace" font-size="9" fill="#f85149">per branch</text>
    <rect x="220" y="140" width="410" height="22" rx="4" fill="none" stroke="#30363d" stroke-width="1" stroke-dasharray="3,2"/>
    <text x="425" y="155" text-anchor="middle" font-family="Consolas, Monaco, 'Courier New', monospace" font-size="9" fill="#8b949e">Each node = full OTAE cycle (Observe → Think → Act → Evaluate)</text>
    <text x="350" y="192" text-anchor="middle" font-family="Consolas, Monaco, 'Courier New', monospace" font-size="11" fill="#8b949e">10 Laws  ·  26 Gates  ·  Best-First Selection  ·  Knowledge Base</text>
  </g>

  <!-- Tagline -->
  <text x="350" y="440" text-anchor="middle"
        font-family="Consolas, Monaco, 'Courier New', monospace" font-size="13" fill="#8b949e"
        font-style="italic">Branch  ·  Score  ·  Prune  ·  Discover</text>

  <!-- Bottom decoration -->
  <line x1="80" y1="452" x2="620" y2="452"
        stroke="#30363d" stroke-width="0.5"/>
</svg>